<mxfile host="app.diagrams.net" modified="2023-12-20T12:47:42.509Z" agent="Mozilla/5.0 (Macintosh; Intel Mac OS X 10_15_7) AppleWebKit/537.36 (KHTML, like Gecko) Chrome/119.0.0.0 Safari/537.36" etag="98L6tzn2HMd84QD6WFdS" version="21.6.9" type="github">
  <diagram name="Page-1" id="74e2e168-ea6b-b213-b513-2b3c1d86103e">
    <mxGraphModel dx="1427" dy="865" grid="1" gridSize="10" guides="1" tooltips="1" connect="1" arrows="1" fold="1" page="1" pageScale="1" pageWidth="1100" pageHeight="850" background="none" math="0" shadow="0">
      <root>
        <mxCell id="0" />
        <mxCell id="1" parent="0" />
        <mxCell id="77e6c97f196da883-1" value="&lt;p style=&quot;line-height: 270%;&quot;&gt;&lt;font style=&quot;font-size: 13px;&quot;&gt;支付链路&lt;/font&gt;&lt;/p&gt;" style="swimlane;html=1;childLayout=stackLayout;startSize=50;rounded=0;shadow=0;labelBackgroundColor=none;strokeWidth=1;fontFamily=Verdana;fontSize=8;align=center;" parent="1" vertex="1">
          <mxGeometry x="80" y="150" width="1150" height="820" as="geometry">
            <mxRectangle x="70" y="40" width="70" height="20" as="alternateBounds" />
          </mxGeometry>
        </mxCell>
        <mxCell id="77e6c97f196da883-2" value="支付链路起点" style="swimlane;html=1;startSize=30;dashed=1;dashPattern=1 4;" parent="77e6c97f196da883-1" vertex="1">
          <mxGeometry y="50" width="220" height="770" as="geometry">
            <mxRectangle y="20" width="40" height="730" as="alternateBounds" />
          </mxGeometry>
        </mxCell>
        <mxCell id="77e6c97f196da883-10" value="&lt;font style=&quot;font-size: 12px;&quot;&gt;商详页&lt;/font&gt;" style="rounded=1;whiteSpace=wrap;html=1;shadow=0;labelBackgroundColor=none;strokeWidth=1;fontFamily=Verdana;fontSize=8;align=center;" parent="77e6c97f196da883-2" vertex="1">
          <mxGeometry x="60" y="155" width="100" height="60" as="geometry" />
        </mxCell>
        <mxCell id="P8WrUf40X3M7dqkF6_TZ-1" value="&lt;font style=&quot;font-size: 12px;&quot;&gt;购物车&lt;/font&gt;" style="rounded=1;whiteSpace=wrap;html=1;shadow=0;labelBackgroundColor=none;strokeWidth=1;fontFamily=Verdana;fontSize=8;align=center;" vertex="1" parent="77e6c97f196da883-2">
          <mxGeometry x="60" y="320" width="100" height="60" as="geometry" />
        </mxCell>
        <mxCell id="77e6c97f196da883-3" value="提单页" style="swimlane;html=1;startSize=30;dashed=1;dashPattern=1 4;" parent="77e6c97f196da883-1" vertex="1">
          <mxGeometry x="220" y="50" width="280" height="770" as="geometry" />
        </mxCell>
        <mxCell id="P8WrUf40X3M7dqkF6_TZ-40" style="edgeStyle=orthogonalEdgeStyle;rounded=1;orthogonalLoop=1;jettySize=auto;html=1;exitX=0.5;exitY=1;exitDx=0;exitDy=0;entryX=0.546;entryY=-0.01;entryDx=0;entryDy=0;entryPerimeter=0;" edge="1" parent="77e6c97f196da883-3" source="77e6c97f196da883-11" target="P8WrUf40X3M7dqkF6_TZ-5">
          <mxGeometry relative="1" as="geometry">
            <Array as="points">
              <mxPoint x="90" y="323" />
              <mxPoint x="120" y="323" />
            </Array>
          </mxGeometry>
        </mxCell>
        <mxCell id="77e6c97f196da883-11" value="&lt;font style=&quot;font-size: 12px;&quot;&gt;提单页&lt;/font&gt;" style="rounded=1;whiteSpace=wrap;html=1;shadow=0;labelBackgroundColor=none;strokeWidth=1;fontFamily=Verdana;fontSize=8;align=center;" parent="77e6c97f196da883-3" vertex="1">
          <mxGeometry x="30" y="155" width="120" height="60" as="geometry" />
        </mxCell>
        <mxCell id="P8WrUf40X3M7dqkF6_TZ-7" style="edgeStyle=orthogonalEdgeStyle;rounded=0;orthogonalLoop=1;jettySize=auto;html=1;exitX=0.5;exitY=1;exitDx=0;exitDy=0;entryX=0.5;entryY=0;entryDx=0;entryDy=0;" edge="1" parent="77e6c97f196da883-3" source="P8WrUf40X3M7dqkF6_TZ-5" target="P8WrUf40X3M7dqkF6_TZ-8">
          <mxGeometry relative="1" as="geometry">
            <mxPoint x="79.969696969697" y="400.0000000000002" as="targetPoint" />
          </mxGeometry>
        </mxCell>
        <mxCell id="P8WrUf40X3M7dqkF6_TZ-5" value="监听resume事件" style="rounded=0;whiteSpace=wrap;html=1;" vertex="1" parent="77e6c97f196da883-3">
          <mxGeometry x="60" y="430" width="110" height="35" as="geometry" />
        </mxCell>
        <mxCell id="P8WrUf40X3M7dqkF6_TZ-8" value="判断订单状态" style="rhombus;whiteSpace=wrap;html=1;" vertex="1" parent="77e6c97f196da883-3">
          <mxGeometry x="55" y="510" width="120" height="40" as="geometry" />
        </mxCell>
        <mxCell id="P8WrUf40X3M7dqkF6_TZ-12" value="&lt;font color=&quot;#ff8000&quot;&gt;订单支付成功，关闭提单页，&lt;br&gt;返回上级页面&lt;/font&gt;" style="text;html=1;align=center;verticalAlign=middle;resizable=0;points=[];autosize=1;strokeColor=none;fillColor=none;" vertex="1" parent="77e6c97f196da883-3">
          <mxGeometry x="-80" y="590" width="180" height="40" as="geometry" />
        </mxCell>
        <mxCell id="P8WrUf40X3M7dqkF6_TZ-19" value="&lt;font color=&quot;#ff8000&quot;&gt;支付sdk&lt;br&gt;验证通过&lt;/font&gt;" style="triangle;whiteSpace=wrap;html=1;align=left;" vertex="1" parent="77e6c97f196da883-3">
          <mxGeometry x="170" y="155" width="90" height="60" as="geometry" />
        </mxCell>
        <mxCell id="P8WrUf40X3M7dqkF6_TZ-20" style="edgeStyle=orthogonalEdgeStyle;rounded=0;orthogonalLoop=1;jettySize=auto;html=1;exitX=1;exitY=0.5;exitDx=0;exitDy=0;entryX=0;entryY=0.5;entryDx=0;entryDy=0;" edge="1" parent="77e6c97f196da883-3" source="77e6c97f196da883-11" target="P8WrUf40X3M7dqkF6_TZ-19">
          <mxGeometry relative="1" as="geometry" />
        </mxCell>
        <mxCell id="77e6c97f196da883-4" value="支付页" style="swimlane;html=1;startSize=30;dashed=1;dashPattern=1 4;" parent="77e6c97f196da883-1" vertex="1">
          <mxGeometry x="500" y="50" width="210" height="770" as="geometry" />
        </mxCell>
        <mxCell id="P8WrUf40X3M7dqkF6_TZ-47" style="edgeStyle=orthogonalEdgeStyle;rounded=0;orthogonalLoop=1;jettySize=auto;html=1;exitX=0.75;exitY=1;exitDx=0;exitDy=0;entryX=0.5;entryY=0;entryDx=0;entryDy=0;" edge="1" parent="77e6c97f196da883-4" source="77e6c97f196da883-12" target="P8WrUf40X3M7dqkF6_TZ-46">
          <mxGeometry relative="1" as="geometry" />
        </mxCell>
        <mxCell id="77e6c97f196da883-12" value="&lt;font style=&quot;font-size: 12px;&quot;&gt;自建收银台（PIX等）&lt;/font&gt;" style="rounded=1;whiteSpace=wrap;html=1;shadow=0;labelBackgroundColor=none;strokeWidth=1;fontFamily=Verdana;fontSize=8;align=center;" parent="77e6c97f196da883-4" vertex="1">
          <mxGeometry x="30" y="155" width="130" height="60" as="geometry" />
        </mxCell>
        <mxCell id="77e6c97f196da883-14" value="&lt;font style=&quot;font-size: 12px;&quot;&gt;第三方收银台&lt;/font&gt;" style="rounded=1;whiteSpace=wrap;html=1;shadow=0;labelBackgroundColor=none;strokeWidth=1;fontFamily=Verdana;fontSize=8;align=center;" parent="77e6c97f196da883-4" vertex="1">
          <mxGeometry x="30" y="355" width="140" height="60" as="geometry" />
        </mxCell>
        <mxCell id="P8WrUf40X3M7dqkF6_TZ-26" value="&lt;font color=&quot;#ff8000&quot;&gt;由支付页回退到提单页，触发resume&lt;/font&gt;" style="text;html=1;align=center;verticalAlign=middle;resizable=0;points=[];autosize=1;strokeColor=none;fillColor=none;" vertex="1" parent="77e6c97f196da883-4">
          <mxGeometry x="-80" y="460" width="220" height="30" as="geometry" />
        </mxCell>
        <mxCell id="P8WrUf40X3M7dqkF6_TZ-46" value="信用卡&amp;amp;借记卡打开3ds认证页面时" style="rounded=0;whiteSpace=wrap;html=1;" vertex="1" parent="77e6c97f196da883-4">
          <mxGeometry x="70" y="240" width="120" height="40" as="geometry" />
        </mxCell>
        <mxCell id="77e6c97f196da883-5" value="支付结果页" style="swimlane;html=1;startSize=30;dashed=1;dashPattern=1 4;" parent="77e6c97f196da883-1" vertex="1">
          <mxGeometry x="710" y="50" width="190" height="770" as="geometry" />
        </mxCell>
        <mxCell id="77e6c97f196da883-15" value="&lt;font style=&quot;font-size: 12px;&quot;&gt;支付结果页&lt;/font&gt;" style="rounded=1;whiteSpace=wrap;html=1;shadow=0;labelBackgroundColor=none;strokeWidth=1;fontFamily=Verdana;fontSize=8;align=center;" parent="77e6c97f196da883-5" vertex="1">
          <mxGeometry x="60" y="355" width="100" height="60" as="geometry" />
        </mxCell>
        <mxCell id="P8WrUf40X3M7dqkF6_TZ-15" value="&lt;font color=&quot;#ff8000&quot;&gt;订单支付未成功，关闭提单页，打开订单详情页&lt;/font&gt;" style="text;html=1;align=center;verticalAlign=middle;resizable=0;points=[];autosize=1;strokeColor=none;fillColor=none;" vertex="1" parent="77e6c97f196da883-5">
          <mxGeometry x="-140" y="670" width="280" height="30" as="geometry" />
        </mxCell>
        <mxCell id="P8WrUf40X3M7dqkF6_TZ-33" value="&lt;font color=&quot;#ff8000&quot;&gt;回退&lt;/font&gt;" style="text;html=1;align=center;verticalAlign=middle;resizable=0;points=[];autosize=1;strokeColor=none;fillColor=none;" vertex="1" parent="77e6c97f196da883-5">
          <mxGeometry x="140" y="450" width="50" height="30" as="geometry" />
        </mxCell>
        <mxCell id="P8WrUf40X3M7dqkF6_TZ-35" value="&lt;font color=&quot;#ff8000&quot;&gt;回退&lt;/font&gt;" style="text;html=1;align=center;verticalAlign=middle;resizable=0;points=[];autosize=1;strokeColor=none;fillColor=none;" vertex="1" parent="77e6c97f196da883-5">
          <mxGeometry x="-10" y="400" width="50" height="30" as="geometry" />
        </mxCell>
        <mxCell id="P8WrUf40X3M7dqkF6_TZ-45" value="&lt;font color=&quot;#cc6600&quot;&gt;router.push&lt;/font&gt;" style="text;html=1;align=center;verticalAlign=middle;resizable=0;points=[];autosize=1;strokeColor=none;fillColor=none;" vertex="1" parent="77e6c97f196da883-5">
          <mxGeometry x="-25" y="360" width="80" height="30" as="geometry" />
        </mxCell>
        <mxCell id="77e6c97f196da883-6" value="订单详情页" style="swimlane;html=1;startSize=30;dashed=1;dashPattern=1 4;" parent="77e6c97f196da883-1" vertex="1">
          <mxGeometry x="900" y="50" width="250" height="770" as="geometry" />
        </mxCell>
        <mxCell id="77e6c97f196da883-18" value="&lt;font style=&quot;font-size: 12px;&quot;&gt;订单详情页&lt;/font&gt;" style="rounded=1;whiteSpace=wrap;html=1;shadow=0;labelBackgroundColor=none;strokeWidth=1;fontFamily=Verdana;fontSize=8;align=center;" parent="77e6c97f196da883-6" vertex="1">
          <mxGeometry x="130" y="420" width="90" height="60" as="geometry" />
        </mxCell>
        <mxCell id="P8WrUf40X3M7dqkF6_TZ-31" value="&lt;font color=&quot;#ff8000&quot;&gt;直接跳转订单详情页，&lt;br&gt;没有关闭支付结果页&lt;/font&gt;" style="text;html=1;align=center;verticalAlign=middle;resizable=0;points=[];autosize=1;strokeColor=none;fillColor=none;" vertex="1" parent="77e6c97f196da883-6">
          <mxGeometry y="340" width="140" height="40" as="geometry" />
        </mxCell>
        <mxCell id="P8WrUf40X3M7dqkF6_TZ-2" style="edgeStyle=orthogonalEdgeStyle;rounded=1;orthogonalLoop=1;jettySize=auto;html=1;exitX=1;exitY=0.5;exitDx=0;exitDy=0;entryX=0;entryY=0.5;entryDx=0;entryDy=0;" edge="1" parent="77e6c97f196da883-1" source="77e6c97f196da883-10" target="77e6c97f196da883-11">
          <mxGeometry relative="1" as="geometry" />
        </mxCell>
        <mxCell id="P8WrUf40X3M7dqkF6_TZ-3" style="edgeStyle=orthogonalEdgeStyle;rounded=1;orthogonalLoop=1;jettySize=auto;html=1;entryX=0;entryY=0.75;entryDx=0;entryDy=0;" edge="1" parent="77e6c97f196da883-1" source="P8WrUf40X3M7dqkF6_TZ-1" target="77e6c97f196da883-11">
          <mxGeometry relative="1" as="geometry">
            <Array as="points">
              <mxPoint x="180" y="400" />
              <mxPoint x="180" y="250" />
            </Array>
          </mxGeometry>
        </mxCell>
        <mxCell id="P8WrUf40X3M7dqkF6_TZ-9" style="edgeStyle=orthogonalEdgeStyle;rounded=1;orthogonalLoop=1;jettySize=auto;html=1;exitX=0.5;exitY=1;exitDx=0;exitDy=0;entryX=0.5;entryY=1;entryDx=0;entryDy=0;" edge="1" parent="77e6c97f196da883-1" source="P8WrUf40X3M7dqkF6_TZ-8" target="P8WrUf40X3M7dqkF6_TZ-1">
          <mxGeometry relative="1" as="geometry">
            <Array as="points">
              <mxPoint x="275" y="640" />
              <mxPoint x="80" y="640" />
            </Array>
          </mxGeometry>
        </mxCell>
        <mxCell id="P8WrUf40X3M7dqkF6_TZ-21" style="edgeStyle=orthogonalEdgeStyle;rounded=1;orthogonalLoop=1;jettySize=auto;html=1;entryX=1;entryY=0.5;entryDx=0;entryDy=0;" edge="1" parent="77e6c97f196da883-1" source="77e6c97f196da883-14" target="P8WrUf40X3M7dqkF6_TZ-5">
          <mxGeometry relative="1" as="geometry">
            <Array as="points">
              <mxPoint x="600" y="498" />
              <mxPoint x="460" y="498" />
            </Array>
          </mxGeometry>
        </mxCell>
        <mxCell id="P8WrUf40X3M7dqkF6_TZ-28" style="edgeStyle=orthogonalEdgeStyle;rounded=0;orthogonalLoop=1;jettySize=auto;html=1;" edge="1" parent="77e6c97f196da883-1" source="77e6c97f196da883-14" target="77e6c97f196da883-15">
          <mxGeometry relative="1" as="geometry" />
        </mxCell>
        <mxCell id="P8WrUf40X3M7dqkF6_TZ-29" style="edgeStyle=orthogonalEdgeStyle;rounded=1;orthogonalLoop=1;jettySize=auto;html=1;exitX=1;exitY=0.5;exitDx=0;exitDy=0;entryX=0.455;entryY=0.039;entryDx=0;entryDy=0;entryPerimeter=0;" edge="1" parent="77e6c97f196da883-1" source="77e6c97f196da883-12" target="77e6c97f196da883-15">
          <mxGeometry relative="1" as="geometry" />
        </mxCell>
        <mxCell id="P8WrUf40X3M7dqkF6_TZ-14" style="edgeStyle=orthogonalEdgeStyle;rounded=1;orthogonalLoop=1;jettySize=auto;html=1;exitX=1;exitY=0.5;exitDx=0;exitDy=0;entryX=0.5;entryY=1;entryDx=0;entryDy=0;" edge="1" parent="77e6c97f196da883-1" source="P8WrUf40X3M7dqkF6_TZ-8" target="77e6c97f196da883-18">
          <mxGeometry relative="1" as="geometry">
            <mxPoint x="420.03" y="520.0000000000002" as="sourcePoint" />
            <mxPoint x="780" y="540" as="targetPoint" />
            <Array as="points">
              <mxPoint x="430" y="580" />
              <mxPoint x="430" y="720" />
              <mxPoint x="1075" y="720" />
            </Array>
          </mxGeometry>
        </mxCell>
        <mxCell id="P8WrUf40X3M7dqkF6_TZ-32" style="edgeStyle=orthogonalEdgeStyle;rounded=1;orthogonalLoop=1;jettySize=auto;html=1;" edge="1" parent="77e6c97f196da883-1" source="77e6c97f196da883-18" target="77e6c97f196da883-15">
          <mxGeometry relative="1" as="geometry" />
        </mxCell>
        <mxCell id="P8WrUf40X3M7dqkF6_TZ-25" style="edgeStyle=orthogonalEdgeStyle;rounded=1;orthogonalLoop=1;jettySize=auto;html=1;exitX=0.083;exitY=1.03;exitDx=0;exitDy=0;entryX=1;entryY=0.75;entryDx=0;entryDy=0;exitPerimeter=0;" edge="1" parent="77e6c97f196da883-1" source="77e6c97f196da883-12" target="P8WrUf40X3M7dqkF6_TZ-5">
          <mxGeometry relative="1" as="geometry">
            <mxPoint x="509.9999999999998" y="265" as="sourcePoint" />
            <mxPoint x="320" y="506.25" as="targetPoint" />
            <Array as="points">
              <mxPoint x="541" y="265" />
              <mxPoint x="540" y="380" />
              <mxPoint x="690" y="380" />
              <mxPoint x="690" y="506" />
            </Array>
          </mxGeometry>
        </mxCell>
        <mxCell id="P8WrUf40X3M7dqkF6_TZ-38" style="edgeStyle=orthogonalEdgeStyle;rounded=0;orthogonalLoop=1;jettySize=auto;html=1;entryX=0;entryY=0.5;entryDx=0;entryDy=0;" edge="1" parent="77e6c97f196da883-1" source="P8WrUf40X3M7dqkF6_TZ-19" target="77e6c97f196da883-12">
          <mxGeometry relative="1" as="geometry" />
        </mxCell>
        <mxCell id="P8WrUf40X3M7dqkF6_TZ-39" style="edgeStyle=orthogonalEdgeStyle;rounded=1;orthogonalLoop=1;jettySize=auto;html=1;exitX=1;exitY=0.5;exitDx=0;exitDy=0;entryX=0;entryY=0.5;entryDx=0;entryDy=0;" edge="1" parent="77e6c97f196da883-1" source="P8WrUf40X3M7dqkF6_TZ-19" target="77e6c97f196da883-14">
          <mxGeometry relative="1" as="geometry">
            <Array as="points">
              <mxPoint x="490" y="235" />
              <mxPoint x="490" y="435" />
            </Array>
          </mxGeometry>
        </mxCell>
        <mxCell id="P8WrUf40X3M7dqkF6_TZ-41" style="edgeStyle=orthogonalEdgeStyle;rounded=0;orthogonalLoop=1;jettySize=auto;html=1;exitX=0;exitY=0.75;exitDx=0;exitDy=0;entryX=1;entryY=0.75;entryDx=0;entryDy=0;" edge="1" parent="77e6c97f196da883-1" source="77e6c97f196da883-15" target="77e6c97f196da883-14">
          <mxGeometry relative="1" as="geometry" />
        </mxCell>
        <mxCell id="P8WrUf40X3M7dqkF6_TZ-42" style="edgeStyle=orthogonalEdgeStyle;rounded=1;orthogonalLoop=1;jettySize=auto;html=1;exitX=1;exitY=0.5;exitDx=0;exitDy=0;entryX=0.5;entryY=0;entryDx=0;entryDy=0;" edge="1" parent="77e6c97f196da883-1" source="77e6c97f196da883-15" target="77e6c97f196da883-18">
          <mxGeometry relative="1" as="geometry" />
        </mxCell>
        <mxCell id="P8WrUf40X3M7dqkF6_TZ-48" style="edgeStyle=orthogonalEdgeStyle;rounded=1;orthogonalLoop=1;jettySize=auto;html=1;exitX=0.5;exitY=1;exitDx=0;exitDy=0;entryX=1;entryY=1;entryDx=0;entryDy=0;" edge="1" parent="77e6c97f196da883-1" source="P8WrUf40X3M7dqkF6_TZ-46" target="P8WrUf40X3M7dqkF6_TZ-5">
          <mxGeometry relative="1" as="geometry">
            <Array as="points">
              <mxPoint x="630" y="360" />
              <mxPoint x="700" y="360" />
              <mxPoint x="700" y="515" />
            </Array>
          </mxGeometry>
        </mxCell>
        <mxCell id="P8WrUf40X3M7dqkF6_TZ-43" value="" style="endArrow=classic;html=1;rounded=1;entryX=0;entryY=0.5;entryDx=0;entryDy=0;" edge="1" parent="1" target="77e6c97f196da883-10">
          <mxGeometry width="50" height="50" relative="1" as="geometry">
            <mxPoint x="200" y="790" as="sourcePoint" />
            <mxPoint x="610" y="550" as="targetPoint" />
            <Array as="points">
              <mxPoint x="120" y="790" />
              <mxPoint x="120" y="385" />
            </Array>
          </mxGeometry>
        </mxCell>
        <mxCell id="P8WrUf40X3M7dqkF6_TZ-44" value="&lt;font color=&quot;#ff8000&quot;&gt;关闭自己再打开支付结果页&lt;/font&gt;" style="text;html=1;align=center;verticalAlign=middle;resizable=0;points=[];autosize=1;strokeColor=none;fillColor=none;" vertex="1" parent="1">
          <mxGeometry x="765" y="358" width="170" height="30" as="geometry" />
        </mxCell>
      </root>
    </mxGraphModel>
  </diagram>
</mxfile>
